<?xml version="1.0" standalone="no"?>
<!DOCTYPE svg PUBLIC "-//W3C//DTD SVG 20010904//EN"
 "http://www.w3.org/TR/2001/REC-SVG-20010904/DTD/svg10.dtd">
<svg version="1.0" xmlns="http://www.w3.org/2000/svg"
 width="370.000000pt" height="370.000000pt" viewBox="0 0 370.000000 370.000000"
 preserveAspectRatio="xMidYMid meet">
<metadata>
Created by potrace 1.14, written by Peter Selinger 2001-2017
</metadata>
<g transform="translate(0.000000,370.000000) scale(0.100000,-0.100000)"
fill="#000000" stroke="none">
<path d="M1667 3489 c-863 -100 -1505 -849 -1464 -1709 38 -794 601 -1423
1397 -1562 109 -19 412 -16 525 5 352 64 650 219 895 467 245 246 399 550 462
910 19 110 16 412 -5 527 -66 355 -221 650 -472 898 -351 347 -852 521 -1338
464z m351 -70 c469 -51 885 -303 1144 -694 275 -414 340 -915 181 -1385 -86
-254 -250 -500 -448 -673 -544 -475 -1319 -527 -1920 -130 -477 316 -748 878
-697 1446 25 272 104 502 250 727 322 498 902 773 1490 709z"/>
<path d="M1804 3299 c-41 -12 -65 -40 -66 -78 -1 -39 24 -68 82 -93 24 -11 48
-24 51 -30 22 -35 -36 -57 -84 -33 -30 15 -32 15 -49 -7 -21 -29 -11 -42 48
-58 56 -16 114 -1 143 37 41 52 23 91 -60 134 -43 21 -59 35 -57 47 3 13 14
17 52 17 42 0 50 3 58 24 10 27 -3 41 -39 41 -12 0 -27 2 -35 4 -7 2 -27 0
-44 -5z"/>
<path d="M1494 3253 l-62 -14 14 -57 c7 -31 20 -91 30 -133 21 -98 24 -103 63
-94 23 5 30 11 27 23 -20 68 -20 69 21 82 59 19 93 56 93 103 0 51 -15 76 -55
93 -40 16 -50 16 -131 -3z m114 -86 c3 -23 -2 -30 -33 -43 -21 -8 -39 -14 -41
-12 -2 2 -6 23 -10 47 l-7 42 44 -3 c40 -3 44 -6 47 -31z"/>
<path d="M2183 3254 c47 -153 50 -175 31 -236 -19 -63 -15 -74 26 -80 22 -3
26 3 43 57 16 55 24 65 92 119 41 33 75 63 75 66 0 4 -17 12 -37 18 -37 11
-39 10 -78 -28 -23 -22 -43 -40 -47 -40 -3 0 -11 27 -17 59 -10 49 -16 60 -35
65 -13 3 -32 9 -41 12 -14 6 -16 3 -12 -12z"/>
<path d="M1194 3141 c-77 -47 -100 -122 -62 -199 33 -67 78 -95 146 -90 154
13 208 200 82 286 -42 28 -122 30 -166 3z m115 -55 c57 -30 67 -102 21 -148
-26 -25 -36 -29 -62 -24 -84 17 -113 123 -46 170 28 20 51 20 87 2z"/>
<path d="M2451 3005 l-123 -94 36 -17 c33 -16 37 -16 54 -1 24 22 23 22 77
-10 41 -25 46 -31 43 -60 -2 -26 3 -37 22 -49 14 -10 40 -31 58 -47 l32 -31
35 34 c32 31 37 33 51 19 14 -14 14 -22 1 -72 -14 -54 -14 -58 5 -82 11 -14
23 -25 27 -25 5 0 16 27 25 60 17 59 18 60 52 60 63 0 109 70 85 129 -7 15
-37 52 -67 82 l-54 53 -105 -104 c-58 -58 -105 -98 -105 -91 0 8 12 80 26 160
l26 145 -22 18 c-12 10 -30 18 -39 17 -9 0 -72 -43 -140 -94z m117 -37 c-5
-23 -11 -44 -13 -46 -2 -2 -16 4 -30 14 l-28 18 34 28 c18 15 36 28 40 28 4 0
3 -19 -3 -42z m302 -174 c0 -14 -27 -44 -40 -44 -5 0 -23 12 -40 26 l-31 27
27 28 28 29 28 -27 c15 -15 28 -32 28 -39z"/>
<path d="M893 2929 c-132 -85 -78 -289 77 -289 157 0 220 209 88 290 -45 27
-122 27 -165 -1z m105 -50 c38 -13 62 -48 62 -89 0 -68 -51 -102 -113 -76 -80
33 -85 140 -7 169 22 8 24 8 58 -4z"/>
<path d="M1715 2869 c-269 -35 -520 -182 -685 -400 -307 -408 -269 -976 90
-1339 400 -405 1051 -409 1452 -9 349 349 404 887 133 1299 -213 322 -602 498
-990 449z m335 -94 c233 -49 451 -199 590 -406 172 -258 203 -599 81 -890 -89
-212 -297 -418 -510 -504 -235 -96 -507 -93 -741 9 -270 117 -481 375 -546
669 -22 96 -22 298 0 394 65 294 276 552 546 669 185 80 383 100 580 59z"/>
<path d="M1950 2644 c0 -44 27 -147 56 -217 26 -63 110 -197 122 -197 4 0 63
57 132 126 l125 125 -32 27 c-83 70 -248 143 -357 158 -46 7 -46 6 -46 -22z"/>
<path d="M2350 2255 l-125 -126 25 -20 c45 -35 135 -85 202 -112 71 -29 203
-55 215 -44 11 11 -15 123 -48 207 -29 74 -114 211 -134 217 -6 2 -66 -53
-135 -122z"/>
<path d="M2191 1816 l-102 -102 191 -197 c106 -108 196 -197 200 -197 5 0 31
33 58 74 73 108 115 226 135 377 l5 37 -81 12 c-86 12 -202 47 -266 80 l-38
19 -102 -103z"/>
<path d="M1033 1706 c15 -110 93 -285 162 -363 l24 -28 128 128 128 128 -25
20 c-94 75 -252 142 -365 155 l-58 7 6 -47z"/>
<path d="M1890 1515 c-51 -52 -97 -92 -101 -89 -12 7 -3 -24 36 -117 21 -51
42 -128 52 -187 l16 -100 36 5 c150 20 269 63 377 135 41 27 74 53 74 56 0 7
-268 274 -355 355 l-41 37 -94 -95z"/>
<path d="M1441 1346 c-79 -79 -121 -128 -116 -136 14 -23 144 -100 217 -129
82 -33 194 -59 205 -48 12 13 -16 146 -48 225 -28 72 -113 212 -127 212 -4 0
-63 -56 -131 -124z"/>
<path d="M676 2685 c-16 -25 -16 -25 34 -56 27 -17 50 -33 50 -36 0 -10 -52
-93 -59 -93 -4 0 -28 13 -54 30 l-46 29 -16 -22 c-8 -12 -15 -26 -15 -33 0 -6
56 -45 124 -87 l125 -76 15 24 c22 34 21 39 -24 64 -22 12 -42 26 -45 31 -4 7
31 76 51 99 2 2 15 -4 29 -13 82 -53 72 -51 90 -16 9 18 15 33 13 35 -16 14
-238 145 -245 145 -6 0 -18 -11 -27 -25z"/>
<path d="M2908 2632 l-126 -76 21 -39 c36 -63 95 -125 133 -137 104 -35 210
64 185 172 -8 34 -64 143 -79 152 -4 2 -64 -30 -134 -72z m137 -52 c24 -47 19
-85 -16 -114 -33 -28 -55 -32 -91 -15 -26 11 -61 58 -57 74 3 12 119 84 136
85 7 0 19 -13 28 -30z"/>
<path d="M548 1756 c-26 -53 -27 -54 -82 -60 -31 -4 -56 -10 -56 -13 0 -3 18
-22 41 -41 39 -34 41 -37 34 -81 -3 -25 -9 -54 -12 -65 -4 -16 3 -14 52 12
l58 32 49 -27 c26 -14 50 -24 52 -22 2 2 -1 28 -6 57 l-11 53 43 44 43 44 -34
5 c-19 3 -45 7 -59 8 -18 2 -32 16 -50 50 -14 26 -28 49 -31 52 -3 3 -17 -19
-31 -48z"/>
<path d="M3090 1757 c-25 -51 -26 -52 -83 -62 l-58 -10 41 -40 c42 -40 42 -40
35 -97 -3 -32 -2 -58 2 -58 4 1 28 11 53 24 l45 24 48 -25 c27 -13 51 -23 53
-20 2 2 0 28 -6 57 l-10 54 41 42 c44 45 40 54 -26 54 -40 0 -54 13 -79 69
-11 22 -22 41 -25 41 -3 -1 -17 -24 -31 -53z"/>
<path d="M937 918 c-62 -73 -92 -116 -86 -123 6 -6 23 6 47 34 l37 43 54 -36
c63 -43 89 -45 130 -10 25 21 31 33 31 65 0 35 -6 46 -52 90 -28 27 -54 49
-59 49 -4 0 -50 -51 -102 -112z m193 -27 c0 -30 -35 -61 -69 -61 -28 0 -103
50 -101 67 1 4 20 30 42 57 l41 49 44 -46 c24 -25 43 -55 43 -66z"/>
<path d="M2585 950 c-10 -16 77 -322 88 -311 6 6 6 25 1 48 -4 21 -8 41 -8 45
-1 4 25 27 57 52 l59 46 43 -26 c24 -14 46 -21 49 -16 3 6 0 14 -7 19 -18 15
-263 153 -270 153 -3 0 -9 -4 -12 -10z m101 -66 c35 -20 64 -39 64 -43 0 -6
-21 -24 -81 -68 -15 -11 -18 -5 -33 51 -8 34 -18 70 -22 79 -9 24 0 22 72 -19z"/>
<path d="M2413 832 c-6 -4 -16 -60 -23 -127 -6 -66 -13 -121 -14 -122 -1 -1
-42 34 -91 77 -133 117 -143 111 -80 -51 64 -162 64 -164 76 -152 7 7 -5 47
-35 123 -25 63 -45 115 -43 116 1 1 40 -31 86 -72 46 -41 88 -74 93 -74 13 0
17 15 30 135 l13 109 34 -88 c55 -146 62 -159 72 -149 6 6 -9 58 -43 146 -29
76 -55 137 -58 137 -3 0 -10 -4 -17 -8z"/>
<path d="M1208 727 c-64 -56 -117 -105 -117 -109 -2 -16 23 -7 57 19 l35 26
63 -31 64 -32 0 -51 c0 -36 4 -49 13 -47 8 3 14 43 20 124 9 137 6 196 -8 200
-5 2 -63 -43 -127 -99z m115 -14 c-3 -43 -7 -80 -9 -82 -1 -1 -28 9 -60 23
l-57 26 59 55 c32 30 62 54 66 55 4 0 5 -35 1 -77z"/>
<path d="M1511 697 c-29 -143 -43 -238 -37 -245 13 -12 23 19 41 121 10 56 20
106 22 110 3 5 38 -53 78 -130 40 -76 80 -139 88 -141 16 -3 19 6 52 187 18
101 18 101 2 101 -9 0 -19 -35 -31 -107 -10 -60 -21 -114 -25 -121 -4 -8 -35
42 -79 127 -40 76 -79 141 -87 144 -10 4 -17 -8 -24 -46z"/>
<path d="M1907 561 c-26 -82 -47 -152 -47 -155 0 -3 6 -6 13 -6 7 0 18 20 25
45 9 33 17 45 30 45 11 0 46 3 78 6 l60 6 18 -41 c11 -22 26 -41 34 -41 17 0
20 -7 -65 155 -37 72 -75 131 -83 133 -12 2 -27 -33 -63 -147z m141 -36 c-4
-3 -128 -12 -128 -9 0 6 43 140 47 147 3 5 23 -24 45 -63 21 -40 37 -74 36
-75z"/>
</g>
</svg>
